<svg xmlns="http://www.w3.org/2000/svg" width="256" height="32" viewBox="0 0 256 32" shape-rendering="crispEdges">
  <g id="wood"><rect x="0" width="32" height="32" fill="#9a6a3a"/><path d="M0 8h32M0 16h32M0 24h32M8 0v8M22 8v8M12 16v8M26 24v8" stroke="#754923" stroke-width="1"/></g>
  <g transform="translate(32)"><rect width="32" height="32" fill="#a9ad6f"/><rect x="1" y="1" width="30" height="30" fill="none" stroke="#71784a" stroke-width="2"/><path d="M16 1v30M1 16h30" stroke="#89905b"/></g>
  <g transform="translate(64)"><rect width="32" height="32" fill="#e7e5dc"/><path d="M0 16h32M16 0v32" stroke="#bbbcb7" stroke-width="1"/><rect x="1" y="1" width="30" height="30" fill="none" stroke="#c9c8c1"/></g>
  <g transform="translate(96)"><rect width="32" height="32" fill="#4a3525"/><rect x="3" y="3" width="26" height="26" fill="#6c4b31"/><path d="M4 8h24M4 24h24" stroke="#2e2018" stroke-width="2"/></g>
  <g transform="translate(128)"><rect x="4" y="7" width="24" height="18" rx="2" fill="#7b4d27" stroke="#3d2515" stroke-width="2"/><path d="M7 25v5M25 25v5" stroke="#3d2515" stroke-width="3"/></g>
  <g transform="translate(160)"><rect x="5" y="5" width="22" height="22" rx="5" fill="#486f4b" stroke="#29422c" stroke-width="2"/><rect x="8" y="8" width="16" height="6" fill="#6f9368"/></g>
  <g transform="translate(192)"><rect x="5" y="3" width="22" height="26" rx="3" fill="#f2eee4" stroke="#9b8d7e" stroke-width="2"/><rect x="7" y="5" width="18" height="9" fill="#d98f9d"/><path d="M8 18h16M8 22h16" stroke="#d9c8b7"/></g>
  <g transform="translate(224)"><rect x="3" y="2" width="26" height="28" fill="#8d5b31" stroke="#4a2d18" stroke-width="2"/><path d="M4 7h24M4 12h24M4 17h24M4 22h24M4 27h24" stroke="#c18a52" stroke-width="2"/></g>
</svg>
